<mxfile host="app.diagrams.net" modified="2021-03-15T12:47:15.437Z" agent="5.0 (Windows NT 10.0; Win64; x64) AppleWebKit/537.36 (KHTML, like Gecko) Chrome/89.0.4389.82 Safari/537.36" etag="84RZ3vePaTbmk9-oYleo" version="14.4.2" type="github">
  <diagram name="Page-1" id="e7e014a7-5840-1c2e-5031-d8a46d1fe8dd">
    <mxGraphModel dx="1176" dy="402" grid="1" gridSize="10" guides="1" tooltips="1" connect="1" arrows="1" fold="1" page="1" pageScale="1" pageWidth="1169" pageHeight="826" background="#ffffff" math="0" shadow="0">
      <root>
        <mxCell id="0" />
        <mxCell id="1" parent="0" />
        <mxCell id="MBHg4sbTyiIhYGjnM7wG-41" value="Actor" style="shape=umlActor;verticalLabelPosition=bottom;verticalAlign=top;html=1;outlineConnect=0;" vertex="1" parent="1">
          <mxGeometry x="760" y="60" width="30" height="60" as="geometry" />
        </mxCell>
        <mxCell id="MBHg4sbTyiIhYGjnM7wG-42" value="&lt;span&gt;&amp;lt;&amp;lt;include&amp;gt;&amp;gt;&lt;/span&gt;" style="whiteSpace=wrap;html=1;aspect=fixed;" vertex="1" parent="1">
          <mxGeometry x="320" width="380" height="380" as="geometry" />
        </mxCell>
        <mxCell id="MBHg4sbTyiIhYGjnM7wG-43" value="Give shots" style="text;html=1;strokeColor=none;fillColor=none;align=center;verticalAlign=middle;whiteSpace=wrap;rounded=0;" vertex="1" parent="1">
          <mxGeometry x="540" y="20" width="137.5" height="20" as="geometry" />
        </mxCell>
        <mxCell id="MBHg4sbTyiIhYGjnM7wG-46" value="&amp;nbsp;Take blood test" style="text;html=1;strokeColor=none;fillColor=none;align=center;verticalAlign=middle;whiteSpace=wrap;rounded=0;" vertex="1" parent="1">
          <mxGeometry x="626.25" y="130" width="60" height="20" as="geometry" />
        </mxCell>
        <mxCell id="MBHg4sbTyiIhYGjnM7wG-47" value="Take urine sample&amp;nbsp;" style="text;html=1;strokeColor=none;fillColor=none;align=center;verticalAlign=middle;whiteSpace=wrap;rounded=0;" vertex="1" parent="1">
          <mxGeometry x="555" y="275" width="80" height="30" as="geometry" />
        </mxCell>
        <mxCell id="MBHg4sbTyiIhYGjnM7wG-49" value="Allocate prescription&amp;nbsp;" style="text;html=1;strokeColor=none;fillColor=none;align=center;verticalAlign=middle;whiteSpace=wrap;rounded=0;" vertex="1" parent="1">
          <mxGeometry x="385" y="335" width="80" height="30" as="geometry" />
        </mxCell>
        <mxCell id="MBHg4sbTyiIhYGjnM7wG-89" style="edgeStyle=orthogonalEdgeStyle;rounded=0;orthogonalLoop=1;jettySize=auto;html=1;exitX=0;exitY=0.5;exitDx=0;exitDy=0;entryX=0.1;entryY=1.2;entryDx=0;entryDy=0;entryPerimeter=0;" edge="1" parent="1" source="MBHg4sbTyiIhYGjnM7wG-50" target="MBHg4sbTyiIhYGjnM7wG-66">
          <mxGeometry relative="1" as="geometry" />
        </mxCell>
        <mxCell id="MBHg4sbTyiIhYGjnM7wG-50" value="make appointments&amp;nbsp;" style="text;html=1;strokeColor=none;fillColor=none;align=center;verticalAlign=middle;whiteSpace=wrap;rounded=0;" vertex="1" parent="1">
          <mxGeometry x="606.25" y="220" width="80" height="20" as="geometry" />
        </mxCell>
        <mxCell id="MBHg4sbTyiIhYGjnM7wG-53" value="Referral to Specialist&amp;nbsp;" style="text;html=1;strokeColor=none;fillColor=none;align=center;verticalAlign=middle;whiteSpace=wrap;rounded=0;" vertex="1" parent="1">
          <mxGeometry x="350" y="295" width="180" height="20" as="geometry" />
        </mxCell>
        <mxCell id="MBHg4sbTyiIhYGjnM7wG-54" value="Patient" style="text;html=1;strokeColor=none;fillColor=none;align=center;verticalAlign=middle;whiteSpace=wrap;rounded=0;" vertex="1" parent="1">
          <mxGeometry x="740" y="30" width="65" height="20" as="geometry" />
        </mxCell>
        <mxCell id="MBHg4sbTyiIhYGjnM7wG-81" style="edgeStyle=orthogonalEdgeStyle;rounded=0;orthogonalLoop=1;jettySize=auto;html=1;exitX=0.5;exitY=0.5;exitDx=0;exitDy=0;exitPerimeter=0;" edge="1" parent="1" source="MBHg4sbTyiIhYGjnM7wG-55">
          <mxGeometry relative="1" as="geometry">
            <mxPoint x="370" y="130" as="targetPoint" />
          </mxGeometry>
        </mxCell>
        <mxCell id="MBHg4sbTyiIhYGjnM7wG-84" style="edgeStyle=orthogonalEdgeStyle;rounded=0;orthogonalLoop=1;jettySize=auto;html=1;exitX=0.75;exitY=0.1;exitDx=0;exitDy=0;exitPerimeter=0;entryX=0;entryY=0.5;entryDx=0;entryDy=0;" edge="1" parent="1" source="MBHg4sbTyiIhYGjnM7wG-55" target="MBHg4sbTyiIhYGjnM7wG-66">
          <mxGeometry relative="1" as="geometry" />
        </mxCell>
        <mxCell id="MBHg4sbTyiIhYGjnM7wG-55" value="Actor" style="shape=umlActor;verticalLabelPosition=bottom;verticalAlign=top;html=1;outlineConnect=0;" vertex="1" parent="1">
          <mxGeometry x="90" y="80" width="30" height="60" as="geometry" />
        </mxCell>
        <mxCell id="MBHg4sbTyiIhYGjnM7wG-75" style="edgeStyle=orthogonalEdgeStyle;rounded=0;orthogonalLoop=1;jettySize=auto;html=1;exitX=0.5;exitY=0.5;exitDx=0;exitDy=0;exitPerimeter=0;entryX=0.167;entryY=0.25;entryDx=0;entryDy=0;entryPerimeter=0;" edge="1" parent="1" source="MBHg4sbTyiIhYGjnM7wG-56" target="MBHg4sbTyiIhYGjnM7wG-53">
          <mxGeometry relative="1" as="geometry" />
        </mxCell>
        <mxCell id="MBHg4sbTyiIhYGjnM7wG-83" style="edgeStyle=orthogonalEdgeStyle;rounded=0;orthogonalLoop=1;jettySize=auto;html=1;exitX=0.75;exitY=0.1;exitDx=0;exitDy=0;exitPerimeter=0;" edge="1" parent="1" source="MBHg4sbTyiIhYGjnM7wG-56" target="MBHg4sbTyiIhYGjnM7wG-69">
          <mxGeometry relative="1" as="geometry" />
        </mxCell>
        <mxCell id="MBHg4sbTyiIhYGjnM7wG-85" style="edgeStyle=orthogonalEdgeStyle;rounded=0;orthogonalLoop=1;jettySize=auto;html=1;exitX=0.5;exitY=0;exitDx=0;exitDy=0;exitPerimeter=0;entryX=0;entryY=0.5;entryDx=0;entryDy=0;" edge="1" parent="1" source="MBHg4sbTyiIhYGjnM7wG-56" target="MBHg4sbTyiIhYGjnM7wG-72">
          <mxGeometry relative="1" as="geometry" />
        </mxCell>
        <mxCell id="MBHg4sbTyiIhYGjnM7wG-92" style="edgeStyle=orthogonalEdgeStyle;rounded=0;orthogonalLoop=1;jettySize=auto;html=1;exitX=1;exitY=1;exitDx=0;exitDy=0;exitPerimeter=0;entryX=0;entryY=1;entryDx=0;entryDy=0;" edge="1" parent="1" source="MBHg4sbTyiIhYGjnM7wG-56" target="MBHg4sbTyiIhYGjnM7wG-49">
          <mxGeometry relative="1" as="geometry" />
        </mxCell>
        <mxCell id="MBHg4sbTyiIhYGjnM7wG-56" value="Actor" style="shape=umlActor;verticalLabelPosition=bottom;verticalAlign=top;html=1;outlineConnect=0;" vertex="1" parent="1">
          <mxGeometry x="90" y="275" width="30" height="60" as="geometry" />
        </mxCell>
        <mxCell id="MBHg4sbTyiIhYGjnM7wG-61" value="Receptionist" style="text;html=1;strokeColor=none;fillColor=none;align=center;verticalAlign=middle;whiteSpace=wrap;rounded=0;" vertex="1" parent="1">
          <mxGeometry x="72.5" y="40" width="65" height="20" as="geometry" />
        </mxCell>
        <mxCell id="MBHg4sbTyiIhYGjnM7wG-63" value="Doctor" style="text;html=1;strokeColor=none;fillColor=none;align=center;verticalAlign=middle;whiteSpace=wrap;rounded=0;" vertex="1" parent="1">
          <mxGeometry x="80" y="240" width="50" height="20" as="geometry" />
        </mxCell>
        <mxCell id="MBHg4sbTyiIhYGjnM7wG-66" value="Update patients information&amp;nbsp;" style="text;html=1;strokeColor=none;fillColor=none;align=center;verticalAlign=middle;whiteSpace=wrap;rounded=0;" vertex="1" parent="1">
          <mxGeometry x="370" y="60" width="70" height="20" as="geometry" />
        </mxCell>
        <mxCell id="MBHg4sbTyiIhYGjnM7wG-68" value="schedule information&amp;nbsp;" style="text;html=1;strokeColor=none;fillColor=none;align=center;verticalAlign=middle;whiteSpace=wrap;rounded=0;" vertex="1" parent="1">
          <mxGeometry x="390" y="120" width="40" height="20" as="geometry" />
        </mxCell>
        <mxCell id="MBHg4sbTyiIhYGjnM7wG-69" value="schedule availability&amp;nbsp;" style="text;html=1;strokeColor=none;fillColor=none;align=center;verticalAlign=middle;whiteSpace=wrap;rounded=0;" vertex="1" parent="1">
          <mxGeometry x="370" y="240" width="80" height="20" as="geometry" />
        </mxCell>
        <mxCell id="MBHg4sbTyiIhYGjnM7wG-77" style="edgeStyle=orthogonalEdgeStyle;rounded=0;orthogonalLoop=1;jettySize=auto;html=1;exitX=0.75;exitY=0;exitDx=0;exitDy=0;entryX=0;entryY=0.5;entryDx=0;entryDy=0;" edge="1" parent="1" source="MBHg4sbTyiIhYGjnM7wG-72" target="MBHg4sbTyiIhYGjnM7wG-46">
          <mxGeometry relative="1" as="geometry" />
        </mxCell>
        <mxCell id="MBHg4sbTyiIhYGjnM7wG-78" style="edgeStyle=orthogonalEdgeStyle;rounded=0;orthogonalLoop=1;jettySize=auto;html=1;exitX=1;exitY=0.5;exitDx=0;exitDy=0;" edge="1" parent="1" source="MBHg4sbTyiIhYGjnM7wG-72" target="MBHg4sbTyiIhYGjnM7wG-47">
          <mxGeometry relative="1" as="geometry" />
        </mxCell>
        <mxCell id="MBHg4sbTyiIhYGjnM7wG-79" style="edgeStyle=orthogonalEdgeStyle;rounded=0;orthogonalLoop=1;jettySize=auto;html=1;exitX=1;exitY=0;exitDx=0;exitDy=0;entryX=0.164;entryY=0.5;entryDx=0;entryDy=0;entryPerimeter=0;" edge="1" parent="1" source="MBHg4sbTyiIhYGjnM7wG-72" target="MBHg4sbTyiIhYGjnM7wG-43">
          <mxGeometry relative="1" as="geometry" />
        </mxCell>
        <mxCell id="MBHg4sbTyiIhYGjnM7wG-72" value="Perform Test" style="text;html=1;strokeColor=none;fillColor=none;align=center;verticalAlign=middle;whiteSpace=wrap;rounded=0;" vertex="1" parent="1">
          <mxGeometry x="365" y="177.5" width="85" height="20" as="geometry" />
        </mxCell>
        <mxCell id="MBHg4sbTyiIhYGjnM7wG-80" value="&amp;lt;&amp;lt;include&amp;gt;&amp;gt;" style="text;html=1;strokeColor=none;fillColor=none;align=center;verticalAlign=middle;whiteSpace=wrap;rounded=0;" vertex="1" parent="1">
          <mxGeometry x="460" y="90" width="40" height="20" as="geometry" />
        </mxCell>
        <mxCell id="MBHg4sbTyiIhYGjnM7wG-87" value="&amp;lt;&amp;lt;include&amp;gt;&amp;gt;" style="text;html=1;strokeColor=none;fillColor=none;align=center;verticalAlign=middle;whiteSpace=wrap;rounded=0;" vertex="1" parent="1">
          <mxGeometry x="477.5" y="110" width="40" height="20" as="geometry" />
        </mxCell>
        <mxCell id="MBHg4sbTyiIhYGjnM7wG-90" value="send prescription info to pharmacy" style="text;html=1;strokeColor=none;fillColor=none;align=center;verticalAlign=middle;whiteSpace=wrap;rounded=0;" vertex="1" parent="1">
          <mxGeometry x="626.25" y="315" width="40" height="20" as="geometry" />
        </mxCell>
        <mxCell id="MBHg4sbTyiIhYGjnM7wG-97" style="edgeStyle=orthogonalEdgeStyle;rounded=0;orthogonalLoop=1;jettySize=auto;html=1;exitX=0.5;exitY=1;exitDx=0;exitDy=0;" edge="1" parent="1" source="MBHg4sbTyiIhYGjnM7wG-68" target="MBHg4sbTyiIhYGjnM7wG-68">
          <mxGeometry relative="1" as="geometry" />
        </mxCell>
      </root>
    </mxGraphModel>
  </diagram>
</mxfile>
